<svg id="Layer_1" data-name="Layer 1" xmlns="http://www.w3.org/2000/svg" width="120" height="120" viewBox="0 0 120 120">
  <title>heads</title>
  <g>
    <path d="M114.6,60a54.61206,54.61206,0,0,1-102,27.108,53.80039,53.80039,0,0,1-5.988-15.612A54.94484,54.94484,0,0,1,5.4,60,54.63072,54.63072,0,0,1,73.284,7.032a53.6595,53.6595,0,0,1,15.384,6.504A54.62611,54.62611,0,0,1,114.6,60Z" style="fill: #ffde50"/>
    <path d="M105,60a44.98374,44.98374,0,0,1-42.684,44.94H62.28c-.756.036-1.512.06-2.28.06a45.00313,45.00313,0,0,1-7.716-89.34h.036A44.98939,44.98939,0,0,1,105,60Z" style="fill: #f68e00"/>
    <g>
      <text transform="translate(23.29687 67.95869)" style="font-size: 21.072948455810547px;fill: #b96b00;font-family: Roboto-Bold, Roboto;font-weight: 700;letter-spacing: 0.04397855451710463em">HEADS</text>
      <text transform="translate(24.49658 69.1584)" style="font-size: 21.072948455810547px;fill: #ffea94;font-family: Roboto-Bold, Roboto;font-weight: 700;letter-spacing: 0.04397855451710463em">HEADS</text>
    </g>
  </g>
</svg>
